<svg width="512" height="512" viewBox="0 0 512 512" fill="none" xmlns="http://www.w3.org/2000/svg">
  <defs>
    <linearGradient id="bubble" x1="156" y1="68" x2="340" y2="364" gradientUnits="userSpaceOnUse">
      <stop stop-color="#60B0FF"/>
      <stop offset="0.84" stop-color="#307EE8"/>
      <stop offset="1" stop-color="#C78AA0"/>
    </linearGradient>
  </defs>

  <rect x="38" y="38" width="436" height="436" rx="114" fill="#071228" fill-opacity="0.14"/>

  <rect x="26" y="26" width="436" height="436" rx="120" fill="url(#bubble)"/>

  <rect x="208" y="98" width="96" height="162" rx="48" fill="white" fill-opacity="0.96"/>
  <rect x="164" y="278" width="184" height="40" rx="20" fill="white" fill-opacity="0.96"/>
  <rect x="239" y="318" width="34" height="72" rx="12" fill="white" fill-opacity="0.96"/>

  <rect x="186" y="286" width="14" height="8" rx="4" fill="#3B80DB"/>
  <rect x="208" y="286" width="14" height="8" rx="4" fill="#3B80DB"/>
  <rect x="230" y="286" width="14" height="8" rx="4" fill="#3B80DB"/>
  <rect x="252" y="286" width="14" height="8" rx="4" fill="#3B80DB"/>
  <rect x="274" y="286" width="14" height="8" rx="4" fill="#3B80DB"/>
  <rect x="197" y="300" width="14" height="8" rx="4" fill="#3B80DB"/>
  <rect x="219" y="300" width="14" height="8" rx="4" fill="#3B80DB"/>
  <rect x="241" y="300" width="14" height="8" rx="4" fill="#3B80DB"/>
  <rect x="263" y="300" width="14" height="8" rx="4" fill="#3B80DB"/>
</svg>
